solid Created by Gmsh
facet normal 9.74586e-07 -1.68805e-06 1
  outer loop
    vertex -0.0009519790963401519 0.001255998824128141 0.03141592765126056
    vertex -0.0007654645808492806 0.001186164571152502 0.03141592735160272
    vertex -0.0007982436014631795 0.001382608006229907 0.0314159277151544
  endloop
endfacet
facet normal 9.74586e-07 -1.68805e-06 1
  outer loop
    vertex -0.0007982436014631795 0.001382608006229907 0.0314159277151544
    vertex -0.0006456707968774404 0.001303308188687641 0.03141592743259734
    vertex -0.0006117279857677774 0.001452439320690618 0.03141592765125752
  endloop
endfacet
facet normal 9.74586e-07 -1.68805e-06 1
  outer loop
    vertex -0.0007654645808492806 0.001186164571152502 0.03141592735160272
    vertex -0.0006456707968774404 0.001303308188687641 0.03141592743259734
    vertex -0.0007982436014631795 0.001382608006229907 0.0314159277151544
  endloop
endfacet
facet normal 9.74586e-07 -1.68805e-06 1
  outer loop
    vertex -0.001056274846856892 0.001086331837540275 0.03141592746649986
    vertex -0.0008825644571364466 0.001018656054416367 0.03141592718296433
    vertex -0.0009519790963401519 0.001255998824128141 0.03141592765126056
  endloop
endfacet
facet normal 9.74586e-07 -1.68805e-06 1
  outer loop
    vertex -0.0009519790963401519 0.001255998824128141 0.03141592765126056
    vertex -0.0008825644571364466 0.001018656054416367 0.03141592718296433
    vertex -0.0007654645808492806 0.001186164571152502 0.03141592735160272
  endloop
endfacet
facet normal 9.74586e-07 -1.68805e-06 1
  outer loop
    vertex -0.001099828783926393 0.000891993103458143 0.03141592718089401
    vertex -0.0008825644571364466 0.001018656054416367 0.03141592718296433
    vertex -0.001056274846856892 0.001086331837540275 0.03141592746649986
  endloop
endfacet
facet normal 9.74586e-07 -1.68805e-06 1
  outer loop
    vertex -0.001077921163758331 0.0006940422366711168 0.03141592682539281
    vertex -0.0009174444950267507 0.0008119902256089812 0.03141592686809631
    vertex -0.001099828783926393 0.000891993103458143 0.03141592718089401
  endloop
endfacet
facet normal 9.74586e-07 -1.68805e-06 1
  outer loop
    vertex -0.0009174444950267507 0.0008119902256089812 0.03141592686809631
    vertex -0.0008825644571364466 0.001018656054416367 0.03141592718296433
    vertex -0.001099828783926393 0.000891993103458143 0.03141592718089401
  endloop
endfacet
facet normal 9.74586e-07 -1.68805e-06 1
  outer loop
    vertex -0.0009929260145250156 0.0005139302840401036 0.03141592643852036
    vertex -0.0009260746724343265 0.0006555882076905012 0.03141592661249322
    vertex -0.001077921163758331 0.0006940422366711168 0.03141592682539281
  endloop
endfacet
facet normal 9.74586e-07 -1.68805e-06 1
  outer loop
    vertex -0.001077921163758331 0.0006940422366711168 0.03141592682539281
    vertex -0.0009260746724343265 0.0006555882076905012 0.03141592661249322
    vertex -0.0009174444950267507 0.0008119902256089812 0.03141592686809631
  endloop
endfacet
facet normal 9.74586e-07 -1.68805e-06 1
  outer loop
    vertex -0.0008540538926636016 0.0003711751845791605 0.03141592606220029
    vertex -0.0007998604109410424 0.0005628195197191538 0.03141592633288873
    vertex -0.0009929260145250156 0.0005139302840401036 0.03141592643852036
  endloop
endfacet
facet normal 9.74586e-07 -1.68805e-06 1
  outer loop
    vertex -0.0007998604109410424 0.0005628195197191538 0.03141592633288873
    vertex -0.0009260746724343265 0.0006555882076905012 0.03141592661249322
    vertex -0.0009929260145250156 0.0005139302840401036 0.03141592643852036
  endloop
endfacet
facet normal 9.74586e-07 -1.68805e-06 1
  outer loop
    vertex -0.0006763537343539536 0.000281246649451629 0.03141592573721271
    vertex -0.0007046771708974738 0.0004485320780270693 0.03141592604720196
    vertex -0.0008540538926636016 0.0003711751845791605 0.03141592606220029
  endloop
endfacet
facet normal 9.74586e-07 -1.68805e-06 1
  outer loop
    vertex -0.0008540538926636016 0.0003711751845791605 0.03141592606220029
    vertex -0.0007046771708974738 0.0004485320780270693 0.03141592604720196
    vertex -0.0007998604109410424 0.0005628195197191538 0.03141592633288873
  endloop
endfacet
facet normal 9.74586e-07 -1.68805e-06 1
  outer loop
    vertex -0.0004790821139098526 0.0002538898370374052 0.03141592549877505
    vertex -0.0005540262296143164 0.0004384104779947068 0.031415925883294
    vertex -0.0006763537343539536 0.000281246649451629 0.03141592573721271
  endloop
endfacet
facet normal 9.74586e-07 -1.68805e-06 1
  outer loop
    vertex -0.0005540262296143164 0.0004384104779947068 0.031415925883294
    vertex -0.0007046771708974738 0.0004485320780270693 0.03141592604720196
    vertex -0.0006763537343539536 0.000281246649451629 0.03141592573721271
  endloop
endfacet
facet normal 9.74586e-07 -1.68805e-06 1
  outer loop
    vertex -0.0002836164707439337 0.0002920692822165014 0.03141592537272576
    vertex -0.0004045286603596553 0.0003916499609247736 0.03141592565866189
    vertex -0.0004790821139098526 0.0002538898370374052 0.03141592549877505
  endloop
endfacet
facet normal 9.74586e-07 -1.68805e-06 1
  outer loop
    vertex -0.0004790821139098526 0.0002538898370374052 0.03141592549877505
    vertex -0.0004045286603596553 0.0003916499609247736 0.03141592565866189
    vertex -0.0005540262296143164 0.0004384104779947068 0.031415925883294
  endloop
endfacet
facet normal 9.74585e-07 -1.68805e-06 1
  outer loop
    vertex -0.0001111385403542752 0.0003916476501895466 0.03141592537272422
    vertex -0.0002836149017209637 0.000491228735235165 0.03141592570891472
    vertex -0.0002836164707439337 0.0002920692822165014 0.03141592537272576
  endloop
endfacet
facet normal 9.74586e-07 -1.68805e-06 1
  outer loop
    vertex -0.0002836149017209637 0.000491228735235165 0.03141592570891472
    vertex -0.0004045286603596553 0.0003916499609247736 0.03141592565866189
    vertex -0.0002836164707439337 0.0002920692822165014 0.03141592537272576
  endloop
endfacet
facet normal 9.74586e-07 -1.68805e-06 1
  outer loop
    vertex 1.966101683574904e-05 0.0005418340794411387 0.03141592549877059
    vertex -0.0001470342205884561 0.000534654258271426 0.03141592564910949
    vertex -0.0001111385403542752 0.0003916476501895466 0.03141592537272422
  endloop
endfacet
facet normal 9.74586e-07 -1.68805e-06 1
  outer loop
    vertex -0.0001111385403542752 0.0003916476501895466 0.03141592537272422
    vertex -0.0001470342205884561 0.000534654258271426 0.03141592564910949
    vertex -0.0002836149017209637 0.000491228735235165 0.03141592570891472
  endloop
endfacet
facet normal 9.74586e-07 -1.68805e-06 1
  outer loop
    vertex 9.460803962460644e-05 0.0007263535396430238 0.0314159257372058
    vertex -9.267243423281195e-05 0.0006621628860305028 0.03141592581136981
    vertex 1.966101683574904e-05 0.0005418340794411387 0.03141592549877059
  endloop
endfacet
facet normal 9.74586e-07 -1.68805e-06 1
  outer loop
    vertex -9.267243423281195e-05 0.0006621628860305028 0.03141592581136981
    vertex -0.0001470342205884561 0.000534654258271426 0.03141592564910949
    vertex 1.966101683574904e-05 0.0005418340794411387 0.03141592549877059
  endloop
endfacet
facet normal 9.74586e-07 -1.68805e-06 1
  outer loop
    vertex 0.0001055808557948302 0.0009252104857091654 0.0314159260621917
    vertex -0.0001016320232653861 0.0008318042033915044 0.0314159261064642
    vertex 9.460803962460644e-05 0.0007263535396430238 0.0314159257372058
  endloop
endfacet
facet normal 9.74586e-07 -1.68805e-06 1
  outer loop
    vertex -0.0001016320232653861 0.0008318042033915044 0.0314159261064642
    vertex -9.267243423281195e-05 0.0006621628860305028 0.03141592581136981
    vertex 9.460803962460644e-05 0.0007263535396430238 0.0314159257372058
  endloop
endfacet
facet normal 9.74586e-07 -1.68805e-06 1
  outer loop
    vertex 5.139039340537361e-05 0.001116855674634982 0.031415926438511
    vertex -4.605282300907906e-05 0.0009874252014550353 0.03141592631499305
    vertex 0.0001055808557948302 0.0009252104857091654 0.0314159260621917
  endloop
endfacet
facet normal 9.74586e-07 -1.68805e-06 1
  outer loop
    vertex 0.0001055808557948302 0.0009252104857091654 0.0314159260621917
    vertex -4.605282300907906e-05 0.0009874252014550353 0.03141592631499305
    vertex -0.0001016320232653861 0.0008318042033915044 0.0314159261064642
  endloop
endfacet
facet normal 9.74586e-07 -1.68805e-06 1
  outer loop
    vertex -6.209097996826399e-05 0.001280521397286316 0.03141592682538374
    vertex -0.0001427527773403794 0.001102819758582825 0.03141592660402685
    vertex 5.139039340537361e-05 0.001116855674634982 0.031415926438511
  endloop
endfacet
facet normal 9.74586e-07 -1.68805e-06 1
  outer loop
    vertex -0.0001427527773403794 0.001102819758582825 0.03141592660402685
    vertex -4.605282300907906e-05 0.0009874252014550353 0.03141592631499305
    vertex 5.139039340537361e-05 0.001116855674634982 0.031415926438511
  endloop
endfacet
facet normal 9.74585e-07 -1.68805e-06 1
  outer loop
    vertex -0.0002225657909511979 0.001398471914551628 0.03141592718088615
    vertex -0.0002188576335032026 0.0012332962500069 0.03141592689844797
    vertex -6.209097996826399e-05 0.001280521397286316 0.03141592682538374
  endloop
endfacet
facet normal 9.74585e-07 -1.68805e-06 1
  outer loop
    vertex -6.209097996826399e-05 0.001280521397286316 0.03141592682538374
    vertex -0.0002188576335032026 0.0012332962500069 0.03141592689844797
    vertex -0.0001427527773403794 0.001102819758582825 0.03141592660402685
  endloop
endfacet
facet normal 9.74586e-07 -1.68805e-06 1
  outer loop
    vertex -0.0004126441034827965 0.001457925460316678 0.0314159274664941
    vertex -0.0003690932281949118 0.001263586040073383 0.031415927095996
    vertex -0.0002225657909511979 0.001398471914551628 0.03141592718088615
  endloop
endfacet
facet normal 9.74586e-07 -1.68805e-06 1
  outer loop
    vertex -0.0003690932281949118 0.001263586040073383 0.031415927095996
    vertex -0.0002188576335032026 0.0012332962500069 0.03141592689844797
    vertex -0.0002225657909511979 0.001398471914551628 0.03141592718088615
  endloop
endfacet
facet normal 9.74586e-07 -1.68805e-06 1
  outer loop
    vertex -0.0006117279857677774 0.001452439320690618 0.03141592765125752
    vertex -0.0005088553192317969 0.001334315298632789 0.03141592735160041
    vertex -0.0004126441034827965 0.001457925460316678 0.0314159274664941
  endloop
endfacet
facet normal 9.74586e-07 -1.68805e-06 1
  outer loop
    vertex -0.0004126441034827965 0.001457925460316678 0.0314159274664941
    vertex -0.0005088553192317969 0.001334315298632789 0.03141592735160041
    vertex -0.0003690932281949118 0.001263586040073383 0.031415927095996
  endloop
endfacet
facet normal 9.74586e-07 -1.68805e-06 1
  outer loop
    vertex -0.0006117279857677774 0.001452439320690618 0.03141592765125752
    vertex -0.0006456707968774404 0.001303308188687641 0.03141592743259734
    vertex -0.0005088553192317969 0.001334315298632789 0.03141592735160041
  endloop
endfacet
facet normal 9.74586e-07 -1.68805e-06 1
  outer loop
    vertex -0.0006272324795517268 0.0006178815179464902 0.03141592625759528
    vertex -0.0007818249851053749 0.0007279758617383452 0.03141592659410331
    vertex -0.0007998604109410424 0.0005628195197191538 0.03141592633288873
  endloop
endfacet
facet normal 9.74586e-07 -1.68805e-06 1
  outer loop
    vertex -0.0007998604109410424 0.0005628195197191538 0.03141592633288873
    vertex -0.0007046771708974738 0.0004485320780270693 0.03141592604720196
    vertex -0.0006272324795517268 0.0006178815179464902 0.03141592625759528
  endloop
endfacet
facet normal 9.74586e-07 -1.68805e-06 1
  outer loop
    vertex -0.0007998604109410424 0.0005628195197191538 0.03141592633288873
    vertex -0.0007818249851053749 0.0007279758617383452 0.03141592659410331
    vertex -0.0009260746724343265 0.0006555882076905012 0.03141592661249322
  endloop
endfacet
facet normal 9.74586e-07 -1.68805e-06 1
  outer loop
    vertex -0.0001427527773403794 0.001102819758582825 0.03141592660402685
    vertex -0.0002188576335032026 0.0012332962500069 0.03141592689844797
    vertex -0.0003213992460375616 0.001078969275462356 0.03141592673787238
  endloop
endfacet
facet normal 9.74586e-07 -1.68805e-06 1
  outer loop
    vertex -0.0003213992460375616 0.001078969275462356 0.03141592673787238
    vertex -0.0001829100567483753 0.0009664247350589143 0.03141592641292236
    vertex -0.0001427527773403794 0.001102819758582825 0.03141592660402685
  endloop
endfacet
facet normal 9.74586e-07 -1.68805e-06 1
  outer loop
    vertex -0.0001427527773403794 0.001102819758582825 0.03141592660402685
    vertex -0.0001829100567483753 0.0009664247350589143 0.03141592641292236
    vertex -4.605282300907906e-05 0.0009874252014550353 0.03141592631499305
  endloop
endfacet
facet normal 9.74586e-07 -1.68805e-06 1
  outer loop
    vertex -0.0007654645808492806 0.001186164571152502 0.03141592735160272
    vertex -0.0006820966195498332 0.001006214918829803 0.03141592696659006
    vertex -0.000544062497075168 0.001161013746732389 0.03141592709337167
  endloop
endfacet
facet normal 9.74586e-07 -1.68805e-06 1
  outer loop
    vertex -0.000544062497075168 0.001161013746732389 0.03141592709337167
    vertex -0.0006456707968774404 0.001303308188687641 0.03141592743259734
    vertex -0.0007654645808492806 0.001186164571152502 0.03141592735160272
  endloop
endfacet
facet normal 9.74586e-07 -1.68805e-06 1
  outer loop
    vertex -0.0007654645808492806 0.001186164571152502 0.03141592735160272
    vertex -0.0008825644571364466 0.001018656054416367 0.03141592718296433
    vertex -0.0006820966195498332 0.001006214918829803 0.03141592696659006
  endloop
endfacet
facet normal 9.74586e-07 -1.68805e-06 1
  outer loop
    vertex -0.0002654866232017632 0.0006752816748161589 0.03141592600193716
    vertex -0.0004377472749874861 0.0005665960187185396 0.03141592598635341
    vertex -0.0002836149017209637 0.000491228735235165 0.03141592570891472
  endloop
endfacet
facet normal 9.74586e-07 -1.68805e-06 1
  outer loop
    vertex -0.0002836149017209637 0.000491228735235165 0.03141592570891472
    vertex -0.0001470342205884561 0.000534654258271426 0.03141592564910949
    vertex -0.0002654866232017632 0.0006752816748161589 0.03141592600193716
  endloop
endfacet
facet normal 9.74586e-07 -1.68805e-06 1
  outer loop
    vertex -0.0004377472749874861 0.0005665960187185396 0.03141592598635341
    vertex -0.0004045286603596553 0.0003916499609247736 0.03141592565866189
    vertex -0.0002836149017209637 0.000491228735235165 0.03141592570891472
  endloop
endfacet
facet normal 9.74586e-07 -1.68805e-06 1
  outer loop
    vertex -0.0009174444950267507 0.0008119902256089812 0.03141592686809631
    vertex -0.0007855563882597526 0.0008908189824998561 0.0314159268726267
    vertex -0.0008825644571364466 0.001018656054416367 0.03141592718296433
  endloop
endfacet
facet normal 9.74586e-07 -1.68805e-06 1
  outer loop
    vertex -0.0009260746724343265 0.0006555882076905012 0.03141592661249322
    vertex -0.0007818249851053749 0.0007279758617383452 0.03141592659410331
    vertex -0.0009174444950267507 0.0008119902256089812 0.03141592686809631
  endloop
endfacet
facet normal 9.74586e-07 -1.68805e-06 1
  outer loop
    vertex -0.0007818249851053749 0.0007279758617383452 0.03141592659410331
    vertex -0.0007855563882597526 0.0008908189824998561 0.0314159268726267
    vertex -0.0009174444950267507 0.0008119902256089812 0.03141592686809631
  endloop
endfacet
facet normal 9.74586e-07 -1.68805e-06 1
  outer loop
    vertex -0.0005088553192317969 0.001334315298632789 0.03141592735160041
    vertex -0.000544062497075168 0.001161013746732389 0.03141592709337167
    vertex -0.0003690932281949118 0.001263586040073383 0.031415927095996
  endloop
endfacet
facet normal 9.74586e-07 -1.68805e-06 1
  outer loop
    vertex -0.000544062497075168 0.001161013746732389 0.03141592709337167
    vertex -0.0003213992460375616 0.001078969275462356 0.03141592673787238
    vertex -0.0003690932281949118 0.001263586040073383 0.031415927095996
  endloop
endfacet
facet normal 9.74586e-07 -1.68805e-06 1
  outer loop
    vertex -0.0003213992460375616 0.001078969275462356 0.03141592673787238
    vertex -0.0002188576335032026 0.0012332962500069 0.03141592689844797
    vertex -0.0003690932281949118 0.001263586040073383 0.031415927095996
  endloop
endfacet
facet normal 9.74586e-07 -1.68805e-06 1
  outer loop
    vertex -0.0003063589235078289 0.0008761630699701209 0.03141592638086792
    vertex -0.0002654866232017632 0.0006752816748161589 0.03141592600193716
    vertex -0.0001016320232653861 0.0008318042033915044 0.0314159261064642
  endloop
endfacet
facet normal 9.74586e-07 -1.68805e-06 1
  outer loop
    vertex -0.0001016320232653861 0.0008318042033915044 0.0314159261064642
    vertex -0.0001829100567483753 0.0009664247350589143 0.03141592641292236
    vertex -0.0003063589235078289 0.0008761630699701209 0.03141592638086792
  endloop
endfacet
facet normal 9.74586e-07 -1.68805e-06 1
  outer loop
    vertex -0.0002654866232017632 0.0006752816748161589 0.03141592600193716
    vertex -9.267243423281195e-05 0.0006621628860305028 0.03141592581136981
    vertex -0.0001016320232653861 0.0008318042033915044 0.0314159261064642
  endloop
endfacet
facet normal 9.74586e-07 -1.68805e-06 1
  outer loop
    vertex -4.605282300907906e-05 0.0009874252014550353 0.03141592631499305
    vertex -0.0001829100567483753 0.0009664247350589143 0.03141592641292236
    vertex -0.0001016320232653861 0.0008318042033915044 0.0314159261064642
  endloop
endfacet
facet normal 9.74586e-07 -1.68805e-06 1
  outer loop
    vertex -0.0005540262296143164 0.0004384104779947068 0.031415925883294
    vertex -0.0004377472749874861 0.0005665960187185396 0.03141592598635341
    vertex -0.0006272324795517268 0.0006178815179464902 0.03141592625759528
  endloop
endfacet
facet normal 9.74586e-07 -1.68805e-06 1
  outer loop
    vertex -0.0006272324795517268 0.0006178815179464902 0.03141592625759528
    vertex -0.0007046771708974738 0.0004485320780270693 0.03141592604720196
    vertex -0.0005540262296143164 0.0004384104779947068 0.031415925883294
  endloop
endfacet
facet normal 9.74586e-07 -1.68805e-06 1
  outer loop
    vertex -0.0005540262296143164 0.0004384104779947068 0.031415925883294
    vertex -0.0004045286603596553 0.0003916499609247736 0.03141592565866189
    vertex -0.0004377472749874861 0.0005665960187185396 0.03141592598635341
  endloop
endfacet
facet normal 9.74586e-07 -1.68805e-06 1
  outer loop
    vertex -0.0005088553192317969 0.001334315298632789 0.03141592735160041
    vertex -0.0006456707968774404 0.001303308188687641 0.03141592743259734
    vertex -0.000544062497075168 0.001161013746732389 0.03141592709337167
  endloop
endfacet
facet normal 9.74586e-07 -1.68805e-06 1
  outer loop
    vertex -0.000544062497075168 0.001161013746732389 0.03141592709337167
    vertex -0.0004921583073653457 0.0009517187391743891 0.03141592668948682
    vertex -0.0003213992460375616 0.001078969275462356 0.03141592673787238
  endloop
endfacet
facet normal 9.74586e-07 -1.68805e-06 1
  outer loop
    vertex -0.000544062497075168 0.001161013746732389 0.03141592709337167
    vertex -0.0006820966195498332 0.001006214918829803 0.03141592696659006
    vertex -0.0004921583073653457 0.0009517187391743891 0.03141592668948682
  endloop
endfacet
facet normal 9.74586e-07 -1.68805e-06 1
  outer loop
    vertex -0.0004921583073653457 0.0009517187391743891 0.03141592668948682
    vertex -0.0003063589235078289 0.0008761630699701209 0.03141592638086792
    vertex -0.0003213992460375616 0.001078969275462356 0.03141592673787238
  endloop
endfacet
facet normal 9.74586e-07 -1.68805e-06 1
  outer loop
    vertex -0.0003063589235078289 0.0008761630699701209 0.03141592638086792
    vertex -0.0001829100567483753 0.0009664247350589143 0.03141592641292236
    vertex -0.0003213992460375616 0.001078969275462356 0.03141592673787238
  endloop
endfacet
facet normal 9.74586e-07 -1.68805e-06 1
  outer loop
    vertex -0.0004921583073653457 0.0009517187391743891 0.03141592668948682
    vertex -0.0004648865429467876 0.0007577065999468559 0.03141592633540657
    vertex -0.0003063589235078289 0.0008761630699701209 0.03141592638086792
  endloop
endfacet
facet normal 9.74586e-07 -1.68805e-06 1
  outer loop
    vertex -0.0004921583073653457 0.0009517187391743891 0.03141592668948682
    vertex -0.0006347814644186499 0.0008287567169650891 0.03141592662091963
    vertex -0.0004648865429467876 0.0007577065999468559 0.03141592633540657
  endloop
endfacet
facet normal 9.74586e-07 -1.68805e-06 1
  outer loop
    vertex -0.0004921583073653457 0.0009517187391743891 0.03141592668948682
    vertex -0.0006820966195498332 0.001006214918829803 0.03141592696659006
    vertex -0.0006347814644186499 0.0008287567169650891 0.03141592662091963
  endloop
endfacet
facet normal 9.74586e-07 -1.68805e-06 1
  outer loop
    vertex -0.0004648865429467876 0.0007577065999468559 0.03141592633540657
    vertex -0.0002654866232017632 0.0006752816748161589 0.03141592600193716
    vertex -0.0003063589235078289 0.0008761630699701209 0.03141592638086792
  endloop
endfacet
facet normal 9.74586e-07 -1.68805e-06 1
  outer loop
    vertex -0.0006347814644186499 0.0008287567169650891 0.03141592662091963
    vertex -0.0006272324795517268 0.0006178815179464902 0.03141592625759528
    vertex -0.0004648865429467876 0.0007577065999468559 0.03141592633540657
  endloop
endfacet
facet normal 9.74586e-07 -1.68805e-06 1
  outer loop
    vertex -0.0006272324795517268 0.0006178815179464902 0.03141592625759528
    vertex -0.0004377472749874861 0.0005665960187185396 0.03141592598635341
    vertex -0.0004648865429467876 0.0007577065999468559 0.03141592633540657
  endloop
endfacet
facet normal 9.74586e-07 -1.68805e-06 1
  outer loop
    vertex -0.0004648865429467876 0.0007577065999468559 0.03141592633540657
    vertex -0.0004377472749874861 0.0005665960187185396 0.03141592598635341
    vertex -0.0002654866232017632 0.0006752816748161589 0.03141592600193716
  endloop
endfacet
facet normal 9.74586e-07 -1.68805e-06 1
  outer loop
    vertex -0.0006347814644186499 0.0008287567169650891 0.03141592662091963
    vertex -0.0007818249851053749 0.0007279758617383452 0.03141592659410331
    vertex -0.0006272324795517268 0.0006178815179464902 0.03141592625759528
  endloop
endfacet
facet normal 9.74586e-07 -1.68805e-06 1
  outer loop
    vertex -0.0006820966195498332 0.001006214918829803 0.03141592696659006
    vertex -0.0007855563882597526 0.0008908189824998561 0.0314159268726267
    vertex -0.0006347814644186499 0.0008287567169650891 0.03141592662091963
  endloop
endfacet
facet normal 9.74586e-07 -1.68805e-06 1
  outer loop
    vertex -0.0006347814644186499 0.0008287567169650891 0.03141592662091963
    vertex -0.0007855563882597526 0.0008908189824998561 0.0314159268726267
    vertex -0.0007818249851053749 0.0007279758617383452 0.03141592659410331
  endloop
endfacet
facet normal 9.74586e-07 -1.68805e-06 1
  outer loop
    vertex -0.0002654866232017632 0.0006752816748161589 0.03141592600193716
    vertex -0.0001470342205884561 0.000534654258271426 0.03141592564910949
    vertex -9.267243423281195e-05 0.0006621628860305028 0.03141592581136981
  endloop
endfacet
facet normal 9.74586e-07 -1.68805e-06 1
  outer loop
    vertex -0.0008825644571364466 0.001018656054416367 0.03141592718296433
    vertex -0.0007855563882597526 0.0008908189824998561 0.0314159268726267
    vertex -0.0006820966195498332 0.001006214918829803 0.03141592696659006
  endloop
endfacet
endsolid Created by Gmsh
